<svg width="164" height="34" viewBox="0 0 164 34" fill="none" xmlns="http://www.w3.org/2000/svg">
<path d="M32.2354 29.3254V13.9045H38.2948C39.8479 13.9045 41.0373 14.3296 41.8632 15.1841C42.6846 16.0386 43.0975 17.2043 43.0975 18.6767C43.0975 20.1491 42.6846 21.3148 41.8632 22.1693C41.0418 23.0238 39.8524 23.4489 38.2948 23.4489H35.2292V29.3254H32.2354ZM35.2337 21.0825H37.6799C38.4878 21.0825 39.0669 20.9292 39.417 20.618C39.7671 20.2937 39.9421 19.7854 39.9421 19.093V18.2516C39.9421 17.5593 39.7671 17.0597 39.417 16.7486C39.0669 16.4243 38.4878 16.2621 37.6799 16.2621H35.2337V21.0782V21.0825ZM45.8311 27.0949H48.7576V20.1579H45.8311V17.9274H51.6841V21.0431H51.8681C51.9758 20.6443 52.1195 20.2631 52.3035 19.895C52.501 19.5137 52.7434 19.1807 53.0351 18.9002C53.3403 18.6066 53.7039 18.37 54.1303 18.1947C54.5567 18.0194 55.0684 17.9274 55.6609 17.9274H56.9401V20.5786H54.5163C53.6321 20.5786 52.9409 20.8284 52.4336 21.3279C51.9264 21.8275 51.6796 22.4673 51.6796 23.2517V27.0949H55.7731V29.3254H45.8266V27.0949H45.8311ZM69.0277 29.3254C68.3095 29.3254 67.7529 29.1545 67.3579 28.8171C66.9764 28.4621 66.7475 27.9757 66.6712 27.3578H66.559C66.3435 28.0634 65.9261 28.6155 65.3022 29.0143C64.6783 29.3955 63.9063 29.5883 62.9951 29.5883C61.8057 29.5883 60.8631 29.286 60.1584 28.6812C59.4582 28.0765 59.1081 27.2395 59.1081 26.1615C59.1081 23.8652 60.8541 22.7127 64.3417 22.7127H66.4243V21.9633C66.4243 21.2403 66.2403 20.6969 65.8767 20.3288C65.5132 19.9607 64.9162 19.7766 64.0948 19.7766C63.3497 19.7766 62.7438 19.9169 62.2904 20.1973C61.8326 20.4778 61.4466 20.8371 61.1234 21.2797L59.4537 19.9081C59.8172 19.2727 60.4052 18.7424 61.2132 18.3174C62.0346 17.8748 63.0939 17.6557 64.391 17.6557C65.9441 17.6557 67.156 18.0106 68.0267 18.7162C68.911 19.4085 69.3508 20.4471 69.3508 21.8319V27.2001H70.7468V29.321H69.0322L69.0277 29.3254ZM63.9736 27.647C64.6738 27.647 65.2528 27.4937 65.7107 27.1825C66.182 26.8583 66.4198 26.4244 66.4198 25.881V24.356H64.409C62.8066 24.356 62.0076 24.8424 62.0076 25.8153V26.2579C62.0076 26.7136 62.1827 27.0598 62.5328 27.2965C62.8829 27.5331 63.3632 27.6514 63.9736 27.6514V27.647ZM78.3458 29.5927C77.0486 29.5927 75.931 29.3999 74.9839 29.0187C74.0369 28.6199 73.3007 28.0896 72.7666 27.4279L74.4812 25.9248C74.9705 26.4419 75.527 26.8363 76.1509 27.1168C76.7928 27.3973 77.5289 27.5375 78.3683 27.5375C79.0999 27.5375 79.6879 27.4192 80.1278 27.1825C80.5676 26.9459 80.7921 26.5866 80.7921 26.1001C80.7921 25.6882 80.6395 25.4077 80.3342 25.2587C80.0425 25.1098 79.6565 25.0002 79.1672 24.9257L77.2686 24.6365C76.7793 24.562 76.2991 24.4612 75.8278 24.3253C75.3699 24.1763 74.957 23.9792 74.5934 23.7294C74.2433 23.4796 73.9605 23.1641 73.7496 22.7784C73.5341 22.3797 73.4309 21.902 73.4309 21.3411C73.4309 20.1491 73.8887 19.2332 74.8044 18.6022C75.7335 17.9668 77.0082 17.6513 78.6241 17.6513C79.7687 17.6513 80.7337 17.8047 81.5282 18.1158C82.3361 18.4269 83.0004 18.8608 83.5166 19.4173L81.986 21.0519C81.6494 20.6969 81.2005 20.3901 80.635 20.1228C80.0874 19.8424 79.3872 19.7021 78.5299 19.7021C77.0352 19.7021 76.2901 20.1535 76.2901 21.0519C76.2901 21.4638 76.4427 21.753 76.7479 21.9151C77.0531 22.0641 77.4481 22.1737 77.9374 22.2482L79.8136 22.5374C80.3163 22.6119 80.7966 22.7215 81.2544 22.8705C81.7257 23.0019 82.1386 23.1947 82.4887 23.4445C82.8523 23.6943 83.144 24.0098 83.3595 24.3955C83.5749 24.7811 83.6782 25.25 83.6782 25.8109C83.6782 26.9897 83.2069 27.9187 82.2598 28.5936C81.3307 29.2553 80.029 29.5883 78.3503 29.5883L78.3458 29.5927ZM86.9593 13.8519H89.8858V19.9344H89.998C90.2583 19.3165 90.6533 18.7863 91.1874 18.3437C91.735 17.8879 92.4891 17.66 93.4497 17.66C94.6077 17.66 95.5458 18.0369 96.264 18.7863C96.9956 19.5225 97.3591 20.583 97.3591 21.9677V29.3254H94.4326V22.3665C94.4326 20.7188 93.692 19.8906 92.2153 19.8906C91.9101 19.8906 91.6228 19.9256 91.3445 20.0001C91.0707 20.0746 90.8194 20.1929 90.5905 20.3551C90.375 20.5041 90.2 20.6881 90.0653 20.9072C89.9441 21.1264 89.8813 21.3937 89.8813 21.7048V29.3254H86.9548V13.8519H86.9593ZM110.156 29.3254C109.438 29.3254 108.881 29.1545 108.486 28.8171C108.105 28.4621 107.876 27.9757 107.799 27.3578H107.687C107.472 28.0634 107.054 28.6155 106.43 29.0143C105.807 29.3955 105.035 29.5883 104.123 29.5883C102.934 29.5883 101.991 29.286 101.287 28.6812C100.586 28.0765 100.236 27.2395 100.236 26.1615C100.236 23.8652 101.982 22.7127 105.47 22.7127H107.553V21.9633C107.553 21.2403 107.369 20.6969 107.005 20.3288C106.641 19.9607 106.044 19.7766 105.223 19.7766C104.478 19.7766 103.872 19.9169 103.419 20.1973C102.961 20.4778 102.575 20.8371 102.252 21.2797L100.582 19.9081C100.945 19.2727 101.533 18.7424 102.341 18.3174C103.163 17.8748 104.222 17.6557 105.519 17.6557C107.072 17.6557 108.284 18.0106 109.155 18.7162C110.039 19.4085 110.479 20.4471 110.479 21.8319V27.2001H111.875V29.321H110.16L110.156 29.3254ZM105.102 27.647C105.802 27.647 106.381 27.4937 106.839 27.1825C107.31 26.8583 107.548 26.4244 107.548 25.881V24.356H105.537C103.935 24.356 103.136 24.8424 103.136 25.8153V26.2579C103.136 26.7136 103.311 27.0598 103.661 27.2965C104.011 27.5331 104.491 27.6514 105.102 27.6514V27.647Z" fill="#08000D"/>
<path d="M121.149 29.5546C120.333 29.5546 119.658 29.4135 119.119 29.1312C118.598 28.8357 118.227 28.4918 118.014 28.1081H117.946V29.2856H116.931V25.9295H117.946V26.5292C117.946 27.226 118.208 27.7685 118.73 28.1522C119.251 28.5358 119.989 28.7299 120.945 28.7299C121.901 28.7299 122.662 28.5535 123.183 28.1963C123.704 27.839 123.967 27.2922 123.967 26.5513C123.967 25.9118 123.767 25.4179 123.369 25.0607C122.984 24.7034 122.408 24.4477 121.638 24.2845L120.415 24.0419C119.337 23.8038 118.498 23.4333 117.9 22.9306C117.316 22.4102 117.022 21.6649 117.022 20.6858C117.022 19.7068 117.375 18.957 118.082 18.441C118.807 17.9074 119.744 17.6384 120.895 17.6384C121.697 17.6384 122.331 17.7663 122.811 18.0177C123.305 18.269 123.636 18.5822 123.804 18.9526H123.894V17.9074H124.909V21.2635H123.894V20.4609C123.894 19.795 123.65 19.2966 123.156 18.9703C122.68 18.6307 121.978 18.4587 121.054 18.4587C120.193 18.4587 119.513 18.6307 119.024 18.9703C118.53 19.2966 118.286 19.7994 118.286 20.4829C118.286 21.1665 118.485 21.6384 118.884 21.9956C119.3 22.3352 119.876 22.5866 120.614 22.7498L121.792 22.9923C122.916 23.2305 123.767 23.6009 124.352 24.1037C124.95 24.6064 125.253 25.3473 125.253 26.3264C125.253 27.3054 124.891 28.0552 124.171 28.6593C123.446 29.2503 122.44 29.5502 121.149 29.5502V29.5546ZM129.218 34C128.524 34 128.026 33.8501 127.718 33.5546C127.41 33.2723 127.256 32.9328 127.256 32.5314C127.256 32.2183 127.342 31.9669 127.51 31.7773C127.677 31.6009 127.926 31.5083 128.248 31.5083C128.524 31.5083 128.742 31.5877 128.896 31.7508C129.063 31.914 129.15 32.1345 129.15 32.4168C129.15 32.6241 129.086 32.7961 128.964 32.9284C128.855 33.0607 128.724 33.1577 128.57 33.2194V33.2635C128.737 33.3208 128.964 33.3517 129.24 33.3517C129.734 33.3517 130.169 33.1665 130.554 32.796C130.953 32.4256 131.315 31.817 131.637 30.9747L132.167 29.5943L127.827 18.6748H126.649V17.8986H131.243V18.6748H129.281L132.788 27.8346H132.878L136.317 18.6748H134.355V17.8986H138.487V18.6748H137.309L132.393 31.1026C132.04 32.0066 131.601 32.7123 131.08 33.215C130.572 33.7354 129.947 33.9912 129.208 33.9912L129.218 34ZM139.701 28.5094H141.5V18.9703L139.701 18.7498V18.172L142.818 17.6825V19.6847H142.909C142.999 19.4333 143.14 19.1864 143.325 18.9526C143.525 18.7012 143.769 18.4763 144.064 18.2867C144.358 18.0926 144.694 17.9383 145.079 17.8192C145.464 17.7001 145.903 17.6428 146.393 17.6428C147.792 17.6428 148.798 18 149.414 18.7101C150.044 19.4201 150.361 20.4962 150.361 21.9339V28.5138H152.16V29.29H147.222V28.5138H149.02V22.0662C149.02 20.8666 148.766 19.9846 148.259 19.4201C147.752 18.8556 146.981 18.5733 145.953 18.5733C145.554 18.5733 145.169 18.6263 144.798 18.7277C144.426 18.8291 144.1 18.9967 143.806 19.2172C143.511 19.4245 143.276 19.6935 143.09 20.0199C142.922 20.333 142.836 20.7034 142.836 21.1312V28.5138H144.635V29.29H139.696V28.5138L139.701 28.5094ZM159.368 29.5546C158.552 29.5546 157.823 29.4223 157.175 29.1533C156.527 28.871 155.974 28.4785 155.512 27.9758C155.068 27.4554 154.719 26.8335 154.475 26.1059C154.244 25.365 154.131 24.527 154.131 23.5921C154.131 22.6571 154.253 21.8192 154.497 21.0783C154.76 20.3374 155.123 19.7156 155.58 19.2084C156.056 18.688 156.618 18.2955 157.266 18.0309C157.927 17.7619 158.656 17.6296 159.458 17.6296C160.011 17.6296 160.518 17.6869 160.981 17.806C161.443 17.9251 161.841 18.0882 162.181 18.2955C162.521 18.5028 162.779 18.7498 162.965 19.0276C163.151 19.3098 163.241 19.6141 163.241 19.9405C163.241 20.2977 163.142 20.58 162.942 20.7872C162.757 20.9813 162.489 21.0783 162.136 21.0783C161.782 21.0783 161.511 20.9813 161.329 20.7872C161.144 20.58 161.053 20.3286 161.053 20.0331C161.053 19.7817 161.121 19.5656 161.261 19.3892C161.416 19.1952 161.615 19.0408 161.859 18.9217V18.8776C161.352 18.5822 160.6 18.4322 159.599 18.4322C158.983 18.4322 158.43 18.5381 157.936 18.7453C157.442 18.9526 157.021 19.2481 156.668 19.6362C156.328 20.0066 156.07 20.4609 155.884 20.9945C155.698 21.5149 155.607 22.0838 155.607 22.7056V24.1301C155.607 24.7961 155.698 25.4047 155.884 25.9515C156.07 26.4851 156.328 26.9438 156.668 27.3319C157.021 27.7156 157.438 28.0155 157.913 28.2227C158.407 28.43 158.946 28.5358 159.531 28.5358C160.025 28.5358 160.455 28.4829 160.822 28.3815C161.207 28.2624 161.538 28.1081 161.814 27.914C162.109 27.72 162.353 27.4907 162.553 27.226C162.77 26.957 162.96 26.6792 163.128 26.3793L163.703 26.7145C163.549 27.0717 163.35 27.4201 163.105 27.7597C162.874 28.0993 162.584 28.4036 162.226 28.6726C161.873 28.9416 161.456 29.1533 160.981 29.3165C160.518 29.4796 159.979 29.559 159.363 29.559L159.368 29.5546Z" fill="#08000D"/>
<path d="M10.1134 8.81485C12.5569 8.81485 14.5378 6.84158 14.5378 4.40743C14.5378 1.97328 12.5569 0 10.1134 0C7.66985 0 5.68896 1.97328 5.68896 4.40743C5.68896 6.84158 7.66985 8.81485 10.1134 8.81485Z" fill="#9500FF"/>
<path fill-rule="evenodd" clip-rule="evenodd" d="M0 22.2725V29.5927H21.4901V22.2725C21.4901 16.5775 16.6799 11.963 10.745 11.963C4.81012 11.963 0 16.5775 0 22.2725ZM13.1958 20.143C12.3362 20.6968 11.815 21.6287 11.815 22.6236V26.86C11.815 27.3822 11.376 27.8009 10.8319 27.8009C10.2878 27.8009 9.84885 27.3777 9.84885 26.86V22.7407C9.84885 21.7457 9.33217 20.8138 8.468 20.2601L4.32545 17.5904C3.87278 17.3023 3.74933 16.717 4.04653 16.2803C4.34831 15.8346 4.97015 15.7131 5.43195 16.0102L9.00297 18.3107C10.0546 18.986 11.4263 18.986 12.4734 18.3107L16.0444 16.0102C16.5062 15.7131 17.128 15.8346 17.4298 16.2803C17.727 16.717 17.6036 17.3023 17.1509 17.5904L13.1912 20.143H13.1958Z" fill="#08000D"/>
</svg>
